<?xml version="1.0" standalone="no"?>
<!DOCTYPE svg PUBLIC "-//W3C//DTD SVG 20010904//EN"
 "http://www.w3.org/TR/2001/REC-SVG-20010904/DTD/svg10.dtd">
<svg version="1.0" xmlns="http://www.w3.org/2000/svg"
 width="16.000000pt" height="16.000000pt" viewBox="0 0 16.000000 16.000000"
 preserveAspectRatio="xMidYMid meet">
<metadata>
Created by potrace 1.11, written by Peter Selinger 2001-2013
</metadata>
<g transform="translate(0.000000,16.000000) scale(0.008000,-0.008000)"
fill="#000000" stroke="none">
<path d="M879 1322 c-39 -10 -39 -12 -19 -32 11 -11 21 -28 21 -37 5 -78 7
-136 9 -251 2 -127 1 -135 -21 -158 -12 -13 -21 -24 -18 -25 16 -4 119 -6 119
-2 0 3 -10 18 -21 35 -18 24 -22 48 -26 134 l-5 105 38 -26 c115 -78 262 43
199 165 -32 63 -131 80 -197 35 -20 -14 -39 -25 -42 -25 -11 0 5 46 20 57 32
23 -5 39 -57 25z m224 -76 c30 -18 41 -85 21 -127 -15 -30 -71 -60 -102 -54
-107 20 -126 148 -28 191 32 14 76 10 109 -10z"/>
<path d="M1028 1250 c-6 -19 34 -122 49 -127 7 -3 3 20 -11 55 -13 32 -25 65
-28 73 -4 12 -5 12 -10 -1z"/>
<path d="M1017 1142 c-23 -5 -20 -57 3 -58 24 -1 38 15 33 37 -6 23 -12 27
-36 21z"/>
</g>
</svg>
